<svg width="46" height="46" viewBox="0 0 46 46" fill="none" xmlns="http://www.w3.org/2000/svg">
<g id="Academic Excellence">
<path id="Vector" d="M5.84637 11.7544L10.588 13.6796V19.6427C10.589 20.1322 10.7292 20.6114 10.9921 21.0243C11.255 21.4373 11.6298 21.767 12.0729 21.9751L22.0937 26.6545C22.4346 26.814 22.8063 26.8967 23.1826 26.8967C23.559 26.8967 23.9307 26.814 24.2715 26.6545L34.2981 21.9751C34.7414 21.7671 35.1164 21.4373 35.3794 21.0243C35.6425 20.6113 35.7827 20.132 35.7837 19.6424V13.6785L39.6596 12.1056V18.565C39.1186 18.7046 38.6392 19.0198 38.2965 19.4612C37.9539 19.9026 37.7675 20.4453 37.7664 21.004V24.1195C37.7664 24.2863 37.8327 24.4462 37.9506 24.5642C38.0686 24.6821 38.2285 24.7484 38.3953 24.7484H42.1813C42.3481 24.7484 42.5081 24.6821 42.626 24.5642C42.744 24.4462 42.8102 24.2863 42.8102 24.1195V21.004C42.8092 20.4453 42.6228 19.9027 42.2803 19.4613C41.9377 19.0199 41.4584 18.7047 40.9174 18.565V11.1715C40.9166 11.047 40.8792 10.9255 40.8098 10.8221C40.7404 10.7187 40.6421 10.638 40.5271 10.5901H40.5253L23.4195 3.64012C23.2677 3.57829 23.0979 3.57829 22.9462 3.64012L5.84637 10.589C5.73053 10.6361 5.63136 10.7167 5.56155 10.8205C5.49174 10.9242 5.45445 11.0465 5.45445 11.1715C5.45445 11.2966 5.49174 11.4188 5.56155 11.5226C5.63136 11.6264 5.73053 11.7073 5.84637 11.7544ZM34.5245 19.6427C34.524 19.8931 34.4523 20.1382 34.3178 20.3494C34.1833 20.5606 33.9915 20.7292 33.7648 20.8355L23.7393 25.5146C23.565 25.5965 23.3748 25.639 23.1823 25.639C22.9897 25.639 22.7995 25.5965 22.6252 25.5146L12.6048 20.8351C12.3783 20.7287 12.1867 20.5602 12.0523 20.349C11.9179 20.1379 11.8463 19.893 11.8458 19.6427V14.1924L22.9462 18.6968C23.0213 18.7272 23.1016 18.7428 23.1826 18.7429C23.2637 18.7429 23.344 18.7271 23.4191 18.6965L34.5259 14.1889L34.5245 19.6427ZM41.551 21.0044V23.4909H39.0228V21.004C39.0284 20.6725 39.164 20.3564 39.4005 20.1239C39.6369 19.8914 39.9553 19.7611 40.2869 19.7611C40.6185 19.7611 40.9369 19.8914 41.1733 20.1239C41.4098 20.3564 41.5454 20.6728 41.551 21.0044ZM23.1826 4.90152L38.616 11.1708L23.1826 17.4351L7.75358 11.1715L23.1826 4.90152ZM41.9941 29.4508C41.7425 29.477 30.2375 30.7158 27.2597 31.0371C27.2469 30.589 27.0603 30.1636 26.7392 29.8508C26.4182 29.538 25.988 29.3624 25.5398 29.3613H20.832C20.3837 29.3624 19.9535 29.538 19.6325 29.8508C19.3115 30.1636 19.1248 30.589 19.112 31.0371C15.8571 30.686 4.68344 29.4824 4.37761 29.4508C2.85961 29.2948 2.15631 32.2144 2.15631 34.7818C2.15631 37.3491 2.85961 40.2712 4.37761 40.1124C9.28778 39.5867 14.1978 39.0596 19.1077 38.5311V41.4945C19.1077 41.6154 19.1426 41.7337 19.2082 41.8353C19.2737 41.9369 19.3671 42.0175 19.4773 42.0674C19.5874 42.1173 19.7096 42.1344 19.8292 42.1167C19.9488 42.0989 20.0607 42.0471 20.1517 41.9675L23.1859 39.3038L26.2201 41.9682C26.311 42.0479 26.423 42.0997 26.5425 42.1174C26.6621 42.1351 26.7843 42.118 26.8944 42.0681C27.0046 42.0182 27.098 41.9377 27.1635 41.8361C27.2291 41.7345 27.264 41.6161 27.264 41.4952V38.5318C29.5935 38.7834 41.8629 40.0994 41.9941 40.1131C43.5125 40.2647 44.2154 37.3498 44.2154 34.7825C44.2154 32.2151 43.5121 29.2948 41.9941 29.4508ZM4.36503 30.714L4.37797 30.7161C5.11648 31.0863 5.34541 33.9099 5.34541 34.7818C5.34541 35.6479 5.13769 38.4693 4.37976 38.847H4.37509C4.08328 38.6918 3.41412 37.3376 3.41412 34.781C3.41412 32.2029 4.0955 30.8473 4.36503 30.714ZM5.96101 38.6745C6.41053 37.4269 6.62817 36.1076 6.60322 34.7818C6.62842 33.456 6.41089 32.1368 5.96137 30.8894L19.1077 32.3017V37.2668L5.96101 38.6745ZM26.0062 40.1063L23.6009 37.9942C23.4861 37.8935 23.3386 37.8379 23.1859 37.8379C23.0331 37.8379 22.8856 37.8935 22.7708 37.9942L20.3655 40.1063V31.0859C20.3655 30.962 20.4147 30.8432 20.5023 30.7556C20.5899 30.668 20.7088 30.6188 20.8327 30.6188H25.5405C25.6644 30.6188 25.7832 30.668 25.8708 30.7556C25.9584 30.8432 26.0077 30.962 26.0077 31.0859L26.0062 40.1063ZM27.264 37.2672V32.3017L40.4103 30.8894C39.9611 32.1369 39.7435 33.456 39.7685 34.7818C39.7435 36.1076 39.9611 37.4269 40.4107 38.6745L27.264 37.2672ZM42.0067 38.8484L41.9927 38.8463C41.2419 38.4772 41.0263 35.6626 41.0263 34.7807C41.0263 33.9376 41.2531 31.0906 41.993 30.7151H41.9963C42.2884 30.8714 42.9576 32.2244 42.9576 34.781C42.9576 37.3621 42.2766 38.7169 42.0067 38.8513V38.8484Z" fill="white"/>
</g>
</svg>
