<svg width="52" height="52" viewBox="0 0 52 52" fill="none" xmlns="http://www.w3.org/2000/svg">
<g id="Administrators">
<path id="Vector" d="M50.3704 34.4303C49.9763 30.7469 48.2395 27.3443 45.4804 24.8491C43.7348 23.2691 41.6433 22.1203 39.3735 21.4947C41.7735 20.1026 43.3923 17.5067 43.3923 14.5382C43.3923 10.1059 39.7864 6.5 35.3541 6.5C30.9219 6.5 27.316 10.1059 27.316 14.5382C27.316 17.507 28.9352 20.1032 31.3356 21.4952C30.4797 21.7312 29.6464 22.0424 28.8455 22.4253C28.5028 21.2441 27.3751 20.3748 26.0396 20.3748H2.91332C1.30691 20.3748 0 21.6321 0 23.1777V36.87C0 38.4156 1.30691 39.673 2.91332 39.673H11.5246L11.2505 41.5966H6.98425C5.54836 41.5966 4.38019 42.6033 4.38019 43.8407V46.0427C4.38019 46.2582 4.46579 46.4649 4.61816 46.6173C4.77054 46.7696 4.9772 46.8552 5.19269 46.8552H23.7601C23.9756 46.8552 24.1823 46.7696 24.3347 46.6173C24.487 46.4649 24.5726 46.2582 24.5726 46.0427V43.8407C24.5726 42.6033 23.4045 41.5966 21.9686 41.5966H17.7024L17.4282 39.673H26.0395C27.6459 39.673 28.9529 38.4156 28.9529 36.87V35.3294L49.5625 35.3293C49.6765 35.3293 49.7892 35.3053 49.8934 35.2589C49.9975 35.2125 50.0907 35.1447 50.1669 35.0599C50.2431 34.9751 50.3006 34.8752 50.3357 34.7668C50.3707 34.6583 50.3826 34.5436 50.3704 34.4303ZM37.4697 28.5714L35.3302 30.8112L33.1908 28.5714L34.8077 22.5885C34.9888 22.5812 35.1701 22.5763 35.3517 22.5762H35.3541L35.3568 22.5761C35.5226 22.5761 35.6876 22.58 35.8521 22.5859L37.4697 28.5714ZM28.941 14.5382C28.941 11.002 31.8179 8.125 35.3541 8.125C38.8903 8.125 41.7673 11.0019 41.7673 14.5382C41.7673 18.0736 38.8918 20.9498 35.3568 20.9512H35.3518C31.8166 20.9499 28.941 18.0737 28.941 14.5382ZM21.9686 43.2216C22.529 43.2216 22.9476 43.5485 22.9476 43.8407V45.2302H6.00519V43.8407C6.00519 43.5485 6.42393 43.2216 6.98425 43.2216H11.9553C12.151 43.2216 12.34 43.1511 12.4878 43.0229C12.6355 42.8947 12.7321 42.7175 12.7597 42.5238L13.6977 35.9417H15.255L16.1931 42.5238C16.2207 42.7175 16.3173 42.8947 16.4651 43.0229C16.6128 43.1511 16.8019 43.2216 16.9975 43.2216H21.9686ZM27.3278 36.87C27.3278 37.5195 26.7499 38.048 26.0394 38.048H17.1966L16.7642 35.0147C16.7366 34.821 16.64 34.6438 16.4923 34.5156C16.3445 34.3874 16.1555 34.3168 15.9598 34.3169H12.9929C12.7973 34.3168 12.6082 34.3874 12.4604 34.5156C12.3127 34.6438 12.2161 34.821 12.1885 35.0147L11.7562 38.048H2.91332C2.20289 38.048 1.625 37.5194 1.625 36.87V23.1777C1.625 22.5281 2.20289 21.9998 2.91332 21.9998H26.0395C26.7499 21.9998 27.3279 22.5281 27.3279 23.1777V36.87H27.3278ZM28.9528 33.7044V24.1911C30.2405 23.4962 31.6329 23.0164 33.0752 22.7704L31.5026 28.5895C31.4661 28.7244 31.465 28.8665 31.4995 29.0019C31.534 29.1374 31.6028 29.2616 31.6994 29.3626L34.7427 32.5486C34.8186 32.6281 34.9097 32.6913 35.0107 32.7345C35.1117 32.7778 35.2204 32.8 35.3302 32.8C35.4401 32.8 35.5488 32.7778 35.6498 32.7345C35.7508 32.6913 35.8419 32.6281 35.9178 32.5486L38.961 29.3626C39.0575 29.2616 39.1263 29.1373 39.1608 29.0019C39.1953 28.8665 39.1943 28.7244 39.1578 28.5895L37.5822 22.7593C43.1722 23.6845 47.638 28.0354 48.6282 33.7043L28.9528 33.7044Z" fill="black"/>
</g>
</svg>
