<svg width="46" height="46" viewBox="0 0 46 46" fill="none" xmlns="http://www.w3.org/2000/svg">
<g id="Faculty">
<path id="Vector" d="M38.2259 41.5793C36.3046 31.9317 36.3876 32.3425 36.3782 32.3028C36.1263 31.0834 35.4179 30.0708 34.2695 29.4365C33.7324 29.1391 33.4227 29.0928 33.1519 29.0043L28.4317 27.3648L26.8585 26.2859V25.062C29.159 23.6954 30.6235 21.3418 30.8913 18.7949C32.8136 18.8841 34.1535 17.0467 33.3475 15.4381V10.2884C33.3475 6.56431 31.3221 5.26871 30.7033 4.95993C27.6755 1.34543 22.0217 0.418417 17.7357 2.6177L17.7274 2.62183C17.6539 2.66504 16.7706 3.07372 15.6829 3.98321C15.5561 4.09281 15.4781 4.24826 15.466 4.41536C15.4539 4.58246 15.5087 4.74754 15.6182 4.87427C15.7278 5.00099 15.8833 5.07899 16.0504 5.09111C16.2175 5.10323 16.3826 5.04846 16.5093 4.93887C20.7069 1.41425 26.9373 2.31996 29.8175 5.87145C29.8885 5.95879 29.9748 6.02322 30.0802 6.06264C30.162 6.09549 32.0841 6.90442 32.0841 10.2884V14.2752C31.7337 14.1268 31.3494 14.0508 30.9399 14.0622V11.996C30.9399 11.4719 30.545 11.0387 30.0215 10.9881C28.9599 10.8856 28.365 10.194 28.0529 9.6319C27.6622 8.92835 26.7297 8.7598 26.1182 9.28236C23.3015 11.69 20.0583 11.8123 17.8337 11.4915C16.1533 11.2489 14.5903 12.3935 14.3184 14.0631C13.9126 14.0448 13.5079 14.1173 13.1337 14.2752C13.1361 12.1003 12.8852 9.73399 14.6639 7.02243C14.7093 6.95297 14.7406 6.87527 14.7559 6.79374C14.7712 6.71221 14.7704 6.62846 14.7534 6.54726C14.7363 6.46607 14.7035 6.38902 14.6567 6.32053C14.6099 6.25203 14.55 6.19342 14.4806 6.14805C14.4111 6.10264 14.3334 6.07136 14.2519 6.05599C14.1704 6.04063 14.0866 6.04148 14.0054 6.0585C13.9242 6.07552 13.8472 6.10838 13.7787 6.15519C13.7102 6.20201 13.6516 6.26186 13.6062 6.33133C11.1855 10.0406 12.0516 13.3642 11.8702 15.438C11.0646 17.046 12.4027 18.8841 14.3263 18.7948C14.6403 21.7944 16.4881 23.52 16.532 23.5951L16.532 23.5952C16.86 23.9096 17.449 24.5664 18.5972 25.1992V26.2856L17.0242 27.3645C10.868 29.503 11.4928 29.2435 10.9927 29.549C10.0474 30.1313 9.39217 31.0219 9.1191 32.1184C9.06528 32.3351 9.15465 31.9256 7.22978 41.579C7.19103 41.774 7.17065 42.1542 7.20544 42.4765C7.34812 43.8022 8.28828 44.5624 9.78485 44.5624H27.143C27.4919 44.5624 27.7747 44.2797 27.7747 43.9307C27.7747 43.5817 27.4919 43.299 27.143 43.299H14.2272V37.511C14.2272 37.162 13.9444 36.8793 13.5955 36.8793C13.2466 36.8793 12.9638 37.162 12.9638 37.511V43.2991H9.78468C8.79424 43.2991 8.32913 42.8742 8.47248 41.8076C10.2011 33.3609 10.2048 32.6793 10.4876 31.9872C10.5368 31.9182 10.8092 30.9435 12.1448 30.3766C12.2828 30.32 12.1967 30.3579 12.6716 30.2132C12.7009 30.2048 12.5561 30.254 14.8248 29.4663L16.338 32.2596C16.3775 32.3326 16.431 32.397 16.4954 32.4493C16.5598 32.5016 16.6339 32.5407 16.7134 32.5643C16.7929 32.5879 16.8763 32.5957 16.9589 32.5871C17.0414 32.5785 17.1214 32.5537 17.1943 32.5141C17.2673 32.4746 17.3317 32.4211 17.384 32.3567C17.4363 32.2923 17.4753 32.2182 17.499 32.1387C17.5226 32.0592 17.5303 31.9758 17.5217 31.8933C17.5131 31.8107 17.4884 31.7307 17.4489 31.6578L16.0342 29.0461L17.0016 28.7101L22.0461 38.0219C22.3232 38.535 23.0285 38.5606 23.3534 38.1125C23.4123 38.0314 23.076 38.6352 28.446 28.7072L29.4133 29.0432L24.2993 38.5028C23.6252 39.7498 21.8329 39.7499 21.1579 38.5041L18.8531 34.2496C18.8136 34.1766 18.7601 34.1121 18.6957 34.0599C18.6313 34.0076 18.5572 33.9685 18.4777 33.9449C18.3982 33.9212 18.3148 33.9135 18.2322 33.9221C18.1497 33.9307 18.0697 33.9555 17.9968 33.995C17.9238 34.0346 17.8594 34.0881 17.8071 34.1525C17.7549 34.2169 17.7158 34.291 17.6921 34.3705C17.6685 34.45 17.6608 34.5334 17.6694 34.6159C17.678 34.6984 17.7027 34.7785 17.7422 34.8514L20.0471 39.106C21.1999 41.2337 24.2602 41.2318 25.4107 39.1037L30.6224 29.4632C32.886 30.2492 32.7532 30.2043 32.7826 30.2127C33.2279 30.3484 33.1783 30.3223 33.3095 30.3759C33.7925 30.5817 34.0809 30.8191 34.0724 30.8129C34.5678 31.2124 34.9093 31.674 35.0918 32.3536C35.1217 32.4614 36.997 41.7596 37.0047 42.0733C37.0235 42.8664 36.681 43.2991 35.6713 43.2991H32.4919V37.511C32.4919 37.162 32.2091 36.8793 31.8602 36.8793C31.5112 36.8793 31.2285 37.162 31.2285 37.511V43.2991H30.0906C29.7417 43.2991 29.4589 43.5818 29.4589 43.9308C29.4589 44.2797 29.7417 44.5625 30.0906 44.5625H35.671C37.1676 44.5625 38.1076 43.8023 38.2502 42.4773C38.2846 42.1612 38.2644 41.773 38.2259 41.5793ZM30.9398 15.3261C31.6683 15.2876 32.3203 15.7783 32.3203 16.4292C32.3203 17.0866 31.6612 17.5706 30.9398 17.5324V15.3261ZM14.2779 17.5324C13.5495 17.571 12.8974 17.0802 12.8974 16.4293C12.8974 15.7719 13.5565 15.2879 14.2779 15.3261V17.5324ZM17.6531 12.742C20.1363 13.1003 23.7629 12.9577 26.9389 10.2427L26.9482 10.2452C27.5584 11.3439 28.5211 12.0376 29.6764 12.2175V14.4545L28.9556 14.8799C28.6587 14.4522 28.1648 14.1711 27.6061 14.1711H24.7152C24.0334 14.1711 23.4477 14.5889 23.1996 15.1818H22.0181C21.77 14.5889 21.1842 14.1711 20.5024 14.1711H17.6116C17.0527 14.1711 16.5587 14.4522 16.2621 14.8799L15.5445 14.4563C15.6067 13.3764 16.5829 12.5871 17.6531 12.742ZM27.9851 15.8135V17.0715C27.9851 17.6195 27.5393 18.0653 26.9913 18.0653H25.3299C24.782 18.0653 24.3361 17.6194 24.3361 17.0715V15.8135H24.3362C24.3362 15.6081 24.5098 15.4345 24.7152 15.4345H27.6061C27.8115 15.4345 27.9851 15.6081 27.9851 15.8135ZM20.8814 15.8135V17.0715C20.8814 17.6195 20.4357 18.0653 19.8877 18.0653H18.2263C17.6783 18.0653 17.2326 17.6194 17.2326 17.0715V15.8135C17.2326 15.6081 17.4062 15.4345 17.6116 15.4345H20.5024C20.7078 15.4345 20.8814 15.6081 20.8814 15.8135ZM17.245 22.4985C15.2005 20.1156 15.5946 17.8017 15.5413 15.9216L15.9693 16.1742V17.0715C15.9693 18.3161 16.9818 19.3287 18.2264 19.3287H19.8878C21.1323 19.3287 22.1449 18.3162 22.1449 17.0715V16.4451H23.0731V17.0715C23.0731 18.3161 24.0856 19.3287 25.3302 19.3287H26.9916C28.2362 19.3287 29.2488 18.3162 29.2488 17.0715V16.1742L29.6767 15.9216V17.8968C29.6767 21.6541 26.703 24.9186 22.6091 24.9636L22.524 24.963C21.4319 24.9519 20.5928 24.6721 20.6777 24.6959C19.4381 24.3521 18.2559 23.6424 17.245 22.4985ZM22.7279 29.5658L19.8606 26.3752V25.7626C21.1311 26.2035 22.4889 26.333 23.8199 26.1402C24.1752 26.0885 24.5576 26.0039 24.7813 25.9407C24.8344 25.9234 25.1394 25.8505 25.5952 25.6751V26.3753L22.7279 29.5658ZM23.4394 31.8171L23.1602 32.3918H22.2956L22.0164 31.8171L22.7279 31.2945L23.4394 31.8171ZM21.0631 33.5552L20.6608 32.8126L20.9812 32.5774L21.2207 33.0705L21.0631 33.5552ZM20.0578 31.6882L18.1384 28.1378L19.1311 27.4533L21.7921 30.4144C21.2139 30.8389 20.6358 31.2635 20.0578 31.6882ZM22.7277 36.6279L21.8933 35.0877L22.3591 33.6552H23.097L23.5619 35.0851C23.2974 35.574 23.0519 36.0281 22.7277 36.6279ZM24.3913 33.5506L24.2351 33.0703L24.4746 32.5772L24.7916 32.81L24.3913 33.5506ZM25.3982 31.6882C24.8201 31.2636 24.242 30.839 23.6639 30.4144L26.3249 27.4533L27.3176 28.1378C26.68 29.3168 25.8118 30.9228 25.3982 31.6882Z" fill="white"/>
</g>
</svg>
