<svg width="52" height="52" viewBox="0 0 52 52" fill="none" xmlns="http://www.w3.org/2000/svg">
<g id="Female Students">
<path id="Union" fill-rule="evenodd" clip-rule="evenodd" d="M21.7872 5.87505C23.1239 5.32146 24.5567 5.03672 26.0035 5.03711H26.0065C27.4533 5.03633 28.886 5.32082 30.2228 5.87431C31.5595 6.4278 32.774 7.23942 33.7968 8.26274C34.8196 9.28607 35.6306 10.501 36.1833 11.8381C36.7361 13.1751 37.0198 14.608 37.0182 16.0548V34.1898C38.7477 34.3855 40.3446 35.2111 41.5043 36.5089C42.664 37.8068 43.3054 39.4862 43.306 41.2267V48.3023C43.306 48.3168 43.3056 48.3312 43.3048 48.3455V48.4955C43.3048 48.8239 43.0386 49.0901 42.7102 49.0901H42.5242L42.5182 49.0901L42.5122 49.0901H9.48885L9.48287 49.0901L9.47688 49.0901H9.28962C8.96124 49.0901 8.69504 48.8239 8.69504 48.4955V41.2267C8.69577 39.485 9.33784 37.8044 10.4987 36.5059C11.6596 35.2074 13.2579 34.3819 14.9888 34.1868V16.0548C14.988 14.608 15.2723 13.1752 15.8255 11.8383C16.3788 10.5014 17.19 9.28664 18.213 8.26344C19.2359 7.24023 20.4504 6.42864 21.7872 5.87505ZM16.8271 47.6338H35.1728V45.8508C35.1728 45.5224 35.439 45.2562 35.7674 45.2562H35.783C36.1114 45.2562 36.3776 45.5224 36.3776 45.8508V47.6338H41.7303V41.2267C41.7303 38.1616 39.2925 35.7149 36.2245 35.7149H32.6272L28.917 39.4192C28.7694 39.5653 28.5702 39.6473 28.3625 39.6473C28.1549 39.6473 27.9556 39.5653 27.8081 39.4192L26.0005 37.6176L24.1959 39.4192C24.0484 39.5653 23.8492 39.6473 23.6415 39.6473C23.4338 39.6473 23.2346 39.5653 23.087 39.4192L19.3828 35.7149H15.7706C12.7085 35.7149 10.2707 38.1646 10.2707 41.2267V47.6338H15.6222V45.8508C15.6222 45.5224 15.8884 45.2562 16.2168 45.2562H16.2325C16.5609 45.2562 16.8271 45.5224 16.8271 45.8508V47.6338ZM29.6224 7.3219C28.4752 6.84925 27.2457 6.60825 26.005 6.61277C24.7642 6.60825 23.5348 6.84925 22.3876 7.3219C21.2399 7.79473 20.1971 8.49005 19.3194 9.36777C18.4417 10.2455 17.7464 11.2882 17.2735 12.4359C16.8007 13.5836 16.5597 14.8136 16.5644 16.0548V34.1392H19.3887L21.2795 32.2484V29.4331C20.3011 28.7036 19.5071 27.7553 18.9609 26.664C18.4147 25.5727 18.1316 24.3686 18.1341 23.1483L18.143 18.4272C18.1434 18.3238 18.1642 18.2214 18.2041 18.126C18.2441 18.0305 18.3025 17.9439 18.3759 17.871C18.4493 17.7981 18.5364 17.7404 18.6321 17.7012C18.7279 17.662 18.8304 17.642 18.9338 17.6424H23.6668C25.8578 17.6424 27.597 15.9062 27.597 13.7122C27.5954 13.5047 27.6757 13.305 27.8204 13.1564C27.9651 13.0078 28.1626 12.9223 28.37 12.9184C28.4751 12.9172 28.5793 12.937 28.6767 12.9765C28.7741 13.0161 28.8626 13.0747 28.937 13.1489C29.0115 13.2231 29.0704 13.3114 29.1104 13.4086C29.1503 13.5058 29.1705 13.61 29.1697 13.7151C29.1632 14.74 29.5603 15.7262 30.2752 16.4605C30.9901 17.1948 31.9653 17.6183 32.9899 17.6394C33.1022 17.6244 33.2165 17.6339 33.3249 17.6671C33.4332 17.7003 33.5332 17.7565 33.6178 17.8318C33.7025 17.9072 33.7699 17.9999 33.8155 18.1037C33.861 18.2075 33.8836 18.3199 33.8818 18.4332L33.8699 23.1542C33.8699 24.3743 33.585 25.5776 33.0379 26.6682C32.4908 27.7588 31.6966 28.7066 30.7186 29.436V32.2484L32.6183 34.1422H35.4455V16.0548C35.4503 14.8136 35.2093 13.5836 34.7364 12.4359C34.2636 11.2882 33.5683 10.2455 32.6905 9.36777C31.8128 8.49005 30.7701 7.79473 29.6224 7.3219ZM32.3061 19.1556C30.6413 18.9148 29.2143 17.9248 28.3818 16.5424C27.903 17.3417 27.229 18.0034 26.423 18.4709C25.617 18.9384 24.7054 19.1934 23.7738 19.2121C23.7411 19.218 23.7054 19.218 23.6697 19.218H19.7217L19.7098 23.1542C19.7054 23.9814 19.8652 24.8012 20.1799 25.5662C20.4945 26.3313 20.9578 27.0263 21.5428 27.6111C22.1279 28.1958 22.8231 28.6588 23.5883 28.973C24.3534 29.2873 25.1733 29.4467 26.0005 29.442C29.5026 29.442 32.2972 26.6534 32.2972 23.1542V23.1483L32.3061 19.1556ZM25.999 31.0159C24.9159 31.0159 23.8445 30.7918 22.8522 30.3576V32.2425L25.9975 35.3908L29.1459 32.2484V30.3576C28.1536 30.7918 27.0822 31.0159 25.999 31.0159ZM24.8857 36.5057L22.0673 33.6844L20.8187 34.93L23.637 37.7543L24.8857 36.5057ZM31.1794 34.933L29.9307 33.6844L27.1154 36.5027L28.364 37.7513L31.1794 34.933Z" fill="black"/>
</g>
</svg>
