<svg width="30" height="30" viewBox="0 0 30 30" fill="none" xmlns="http://www.w3.org/2000/svg">
<g id="Quote">
<path id="Vector" d="M12.0522 7.08726C12.8024 6.77506 13.117 5.88649 12.7782 5.16603L11.5924 2.69244C11.2535 1.99623 10.4307 1.68379 9.70467 1.99623C7.64757 2.86079 5.88088 3.98951 4.47721 5.35839C2.75893 6.96718 1.59728 8.81637 0.968046 10.8577C0.338816 12.9232 0 15.7328 0 19.3111V26.6838C0 27.4763 0.653431 28.1248 1.45207 28.1248H10.9631C11.7618 28.1248 12.4152 27.4763 12.4152 26.6838V17.2458C12.4152 16.453 11.7618 15.8049 10.9631 15.8049H6.41331C6.46171 13.3791 7.04254 11.434 8.10739 9.96887C8.97863 8.79259 10.2855 7.83198 12.0522 7.08726ZM29.1382 7.08726C29.8884 6.77506 30.2028 5.88649 29.8642 5.16603L28.6784 2.7167C28.3396 2.02025 27.5167 1.70805 26.7907 2.02025C24.7578 2.8848 23.0151 4.01353 21.5874 5.35839C19.8689 6.99144 18.6833 8.84063 18.0538 10.8819C17.4246 12.899 17.1102 15.709 17.1102 19.3113V26.6841C17.1102 27.4766 17.7637 28.125 18.5623 28.125H28.0733C28.872 28.125 29.5254 27.4766 29.5254 26.6841V17.246C29.5254 16.4533 28.872 15.8051 28.0733 15.8051H23.4993C23.5477 13.3793 24.1288 11.4343 25.1934 9.96911C26.0646 8.7926 27.3715 7.83198 29.1382 7.08726Z" fill="#14B642"/>
</g>
</svg>
