<svg width="52" height="52" viewBox="0 0 52 52" fill="none" xmlns="http://www.w3.org/2000/svg">
<g id="Male Student">
<path id="Vector" d="M14.4742 16.5465C14.4742 17.5031 14.5938 18.4389 14.8304 19.3643C14.553 19.8626 14.408 20.4237 14.4092 20.9941C14.4092 22.7201 15.7352 24.1783 17.4226 24.1783C17.5318 24.1783 17.6306 24.1705 17.7424 24.1575C18.347 25.8926 19.496 27.386 21.0184 28.4153L21.021 30.8015L20.345 30.1257C20.28 30.0604 20.2026 30.0089 20.1173 29.974C20.032 29.9392 19.9405 29.9218 19.8484 29.923C19.6714 29.9278 19.5029 30.0004 19.3778 30.1257L16.978 32.5197C10.374 33.0344 5.20001 38.6127 5.20001 45.5063V48.4384C5.20001 48.8543 5.55361 49.2182 5.96961 49.2182H45.7028C46.1188 49.2182 46.4724 48.8543 46.4724 48.4384V45.5063C46.4724 38.6231 41.2984 33.0344 34.6944 32.5197L32.2946 30.1283C32.2301 30.0629 32.1532 30.011 32.0684 29.9757C31.9835 29.9405 31.8925 29.9225 31.8006 29.923C31.6216 29.9259 31.4509 29.9987 31.3248 30.1257L30.6488 30.7911V28.4231C32.1694 27.3891 33.3185 25.895 33.9274 24.1601C34.0366 24.1731 34.138 24.1783 34.2498 24.1783C35.9346 24.1783 37.2606 22.7279 37.2606 20.9941C37.2606 20.4066 37.1046 19.8399 36.8368 19.3617C37.2652 17.6855 37.3046 15.9337 36.9522 14.2399C36.5998 12.5462 35.8649 10.9554 34.8035 9.58906C33.7421 8.22272 32.3824 7.11699 30.8283 6.35634C29.2741 5.59568 27.5666 5.20024 25.8362 5.2002C24.3448 5.19883 22.8678 5.49129 21.4895 6.06085C20.1113 6.63041 18.8588 7.46592 17.8036 8.51962C16.7485 9.57333 15.9113 10.8246 15.34 12.2019C14.7688 13.5792 14.4746 15.0555 14.4742 16.5465ZM35.8202 16.5465C35.8202 17.1028 35.7708 17.6435 35.6798 18.1893C35.2888 17.9623 34.8495 17.8313 34.398 17.8072V17.0716C34.3984 16.9813 34.3809 16.8917 34.3465 16.8082C34.3122 16.7246 34.2617 16.6487 34.1979 16.5847C34.1341 16.5207 34.0583 16.4699 33.9749 16.4352C33.8914 16.4006 33.802 16.3828 33.7116 16.3828H28.7014C26.5642 16.3828 24.7234 14.8049 24.3932 12.6786C24.3662 12.5071 24.2754 12.352 24.139 12.2445C24.0026 12.1371 23.8306 12.0851 23.6574 12.099C23.4865 12.1125 23.3268 12.1893 23.2095 12.3143C23.0922 12.4392 23.0257 12.6034 23.023 12.7748C23.0162 13.7336 22.6305 14.6509 21.9502 15.3267C21.2698 16.0025 20.3499 16.3821 19.3908 16.3828H17.9608C17.8705 16.3828 17.781 16.4006 17.6975 16.4352C17.6141 16.4699 17.5383 16.5207 17.4745 16.5847C17.4108 16.6487 17.3603 16.7246 17.3259 16.8082C17.2916 16.8917 17.2741 16.9813 17.2744 17.0716V17.8098C16.8223 17.8329 16.3821 17.963 15.99 18.1893C15.7526 16.7601 15.8293 15.2964 16.2148 13.8998C16.6002 12.5032 17.2853 11.2073 18.2222 10.1021C19.1592 8.99689 20.3256 8.10892 21.6405 7.49987C22.9554 6.89083 24.3871 6.57532 25.8362 6.57528C28.4823 6.57527 31.0202 7.62548 32.8923 9.49515C34.7644 11.3648 35.8175 13.901 35.8202 16.5465ZM23.8368 15.0571C24.687 16.4529 26.4212 17.7604 28.6988 17.7604H33.02V21.3476C33.02 25.3298 29.796 28.5141 25.8362 28.5141C24.8935 28.5168 23.9594 28.3335 23.0877 27.9747C22.2159 27.616 21.4235 27.0887 20.7559 26.4232C20.0883 25.7577 19.5587 24.967 19.1972 24.0965C18.8358 23.226 18.6498 22.2927 18.6498 21.3502V17.763H19.3908C21.5488 17.763 23.1452 16.4113 23.8368 15.0571ZM17.2744 19.1901V21.3476C17.2744 21.8467 17.3134 22.3302 17.394 22.8032C16.5464 22.7928 15.7872 22.0234 15.7872 20.9941C15.7872 20.0193 16.4554 19.2733 17.2744 19.1901ZM34.398 19.1901C34.853 19.2421 35.334 19.5098 35.62 20.0063C35.7951 20.3059 35.8867 20.647 35.8852 20.9941C35.8852 22.0208 35.1234 22.7928 34.2732 22.8006C34.356 22.3216 34.3977 21.8363 34.398 21.3502V19.1901ZM22.3964 29.1717C23.4821 29.6423 24.6527 29.8853 25.8359 29.8857C27.0192 29.8862 28.19 29.6441 29.276 29.1743V32.1636L25.8362 35.6052L22.399 32.1792L22.3964 29.1717ZM31.8136 31.584L33.3996 33.1696L28.392 38.1604L26.806 36.5748L31.8136 31.584ZM19.8614 31.5866L24.8612 36.5774L23.2752 38.1682L18.2728 33.1696L19.8614 31.5866ZM17.0534 33.8948L22.789 39.6265C23.0568 39.8916 23.491 39.8916 23.7588 39.6265L25.8362 37.5547L27.9084 39.6265C27.9724 39.6905 28.0484 39.7413 28.132 39.776C28.2157 39.8107 28.3054 39.8285 28.3959 39.8285C28.4865 39.8285 28.5761 39.8107 28.6598 39.776C28.7434 39.7413 28.8194 39.6905 28.8834 39.6265L34.6216 33.8948C40.5028 34.3627 45.0996 39.3691 45.0996 45.5063V47.8405H38.2174V45.1112C38.2185 45.0196 38.2011 44.9288 38.1664 44.8441C38.1317 44.7594 38.0804 44.6825 38.0154 44.618C37.9504 44.5535 37.8731 44.5028 37.7881 44.4687C37.7031 44.4346 37.6122 44.418 37.5206 44.4197C37.4306 44.4201 37.3415 44.4382 37.2585 44.473C37.1755 44.5078 37.1002 44.5587 37.0369 44.6227C36.9736 44.6867 36.9236 44.7626 36.8897 44.846C36.8558 44.9293 36.8387 45.0186 36.8394 45.1086V47.8379H14.8252V45.1086C14.8259 45.0175 14.8084 44.9272 14.7737 44.8429C14.739 44.7587 14.6878 44.6822 14.6231 44.6181C14.5585 44.5539 14.4816 44.5033 14.3971 44.4692C14.3126 44.4352 14.2221 44.4183 14.131 44.4197C14.0411 44.4197 13.9522 44.4376 13.8693 44.4724C13.7864 44.5072 13.7113 44.5581 13.6484 44.6222C13.5854 44.6864 13.5359 44.7624 13.5027 44.8459C13.4695 44.9294 13.4533 45.0187 13.455 45.1086C13.4732 46.0183 13.455 47.8379 13.455 47.8379H6.57801V45.5063C6.57801 39.3197 11.2242 34.3549 17.056 33.8948H17.0534Z" fill="#212121"/>
</g>
</svg>
