<svg width="52" height="52" viewBox="0 0 52 52" fill="none" xmlns="http://www.w3.org/2000/svg">
<g id="Pass rate">
<g id="Union">
<path d="M7.98958 43.0625H21.2604C21.5118 43.0625 21.7529 42.9626 21.9307 42.7849C22.1085 42.6071 22.2083 42.366 22.2083 42.1146C22.2083 41.8632 22.1085 41.6221 21.9307 41.4443C21.7529 41.2665 21.5118 41.1667 21.2604 41.1667H7.98958C6.42173 41.1667 5.14583 39.8908 5.14583 38.3229V7.98958C5.14583 6.42173 6.42173 5.14583 7.98958 5.14583H30.7396C32.3074 5.14583 33.5833 6.42173 33.5833 7.98958V19.4783C33.5833 19.7297 33.6832 19.9708 33.861 20.1486C34.0387 20.3264 34.2798 20.4263 34.5312 20.4263C34.7827 20.4263 35.0238 20.3264 35.2015 20.1486C35.3793 19.9708 35.4792 19.7297 35.4792 19.4783V7.98958C35.4792 5.37713 33.352 3.25 30.7396 3.25H7.98958C5.37713 3.25 3.25 5.37713 3.25 7.98958V38.3229C3.25151 39.5795 3.75134 40.7841 4.63985 41.6726C5.52837 42.5612 6.73303 43.061 7.98958 43.0625Z" fill="black"/>
<path d="M9.88542 31.6875H21.2604C21.5118 31.6875 21.7529 31.5876 21.9307 31.4099C22.1085 31.2321 22.2083 30.991 22.2083 30.7396C22.2083 30.4882 22.1085 30.2471 21.9307 30.0693C21.7529 29.8915 21.5118 29.7917 21.2604 29.7917H9.88542C9.63401 29.7917 9.39291 29.8915 9.21514 30.0693C9.03737 30.2471 8.9375 30.4882 8.9375 30.7396C8.9375 30.991 9.03737 31.2321 9.21514 31.4099C9.39291 31.5876 9.63401 31.6875 9.88542 31.6875Z" fill="black"/>
<path d="M9.88542 37.375H19.3646C19.616 37.375 19.8571 37.2751 20.0349 37.0974C20.2126 36.9196 20.3125 36.6785 20.3125 36.4271C20.3125 36.1757 20.2126 35.9346 20.0349 35.7568C19.8571 35.579 19.616 35.4792 19.3646 35.4792H9.88542C9.63401 35.4792 9.39291 35.579 9.21514 35.7568C9.03737 35.9346 8.9375 36.1757 8.9375 36.4271C8.9375 36.6785 9.03737 36.9196 9.21514 37.0974C9.39291 37.2751 9.63401 37.375 9.88542 37.375Z" fill="black"/>
<path fill-rule="evenodd" clip-rule="evenodd" d="M15.5729 12.7292C15.5729 14.8203 17.2735 16.5208 19.3646 16.5208C21.4557 16.5208 23.1562 14.8203 23.1562 12.7292C23.1562 10.6381 21.4557 8.9375 19.3646 8.9375C17.2735 8.9375 15.5729 10.6381 15.5729 12.7292ZM17.4688 12.7292C17.4688 11.6846 18.32 10.8333 19.3646 10.8333C20.4092 10.8333 21.2604 11.6846 21.2604 12.7292C21.2604 13.7738 20.4092 14.625 19.3646 14.625C18.32 14.625 17.4688 13.7738 17.4688 12.7292Z" fill="black"/>
<path d="M25.3297 25.7224C25.5075 25.9001 25.7486 26 26 26C26.2514 26 26.4925 25.9001 26.6703 25.7224C26.848 25.5446 26.9479 25.3035 26.9479 25.0521V23.1562C26.9479 20.5438 24.8208 18.4167 22.2083 18.4167H16.5208C13.9084 18.4167 11.7812 20.5438 11.7812 23.1562V25.0521C11.7812 25.3035 11.8811 25.5446 12.0589 25.7224C12.2367 25.9001 12.4778 26 12.7292 26C12.9806 26 13.2217 25.9001 13.3994 25.7224C13.5772 25.5446 13.6771 25.3035 13.6771 25.0521V23.1562C13.6771 21.5884 14.953 20.3125 16.5208 20.3125H22.2083C23.7762 20.3125 25.0521 21.5884 25.0521 23.1562V25.0521C25.0521 25.3035 25.152 25.5446 25.3297 25.7224Z" fill="black"/>
<path d="M33.8605 40.8899C34.0392 41.0667 34.2803 41.1661 34.5317 41.1667H34.562C34.6918 41.1627 34.8194 41.132 34.9368 41.0765C35.0542 41.0211 35.1589 40.9421 35.2445 40.8444L41.8799 33.2611C42.0456 33.0717 42.1293 32.8244 42.1126 32.5734C42.0959 32.3224 41.9801 32.0883 41.7908 31.9226C41.6015 31.7569 41.3541 31.6732 41.1031 31.6899C40.8521 31.7067 40.618 31.8224 40.4523 32.0117L34.4843 38.8329L31.4092 35.7579C31.2304 35.5852 30.991 35.4897 30.7425 35.4918C30.4939 35.494 30.2562 35.5937 30.0804 35.7694C29.9047 35.9452 29.805 36.1829 29.8028 36.4315C29.8007 36.68 29.8962 36.9194 30.0689 37.0982L33.8605 40.8899Z" fill="black"/>
<path fill-rule="evenodd" clip-rule="evenodd" d="M36.4271 48.75C29.6324 48.75 24.1042 43.2217 24.1042 36.4271C24.1042 29.6324 29.6324 24.1042 36.4271 24.1042C43.2217 24.1042 48.75 29.6324 48.75 36.4271C48.75 43.2217 43.2217 48.75 36.4271 48.75ZM36.4271 26C30.677 26 26 30.677 26 36.4271C26 42.1771 30.677 46.8542 36.4271 46.8542C42.1771 46.8542 46.8542 42.1771 46.8542 36.4271C46.8542 30.677 42.1771 26 36.4271 26Z" fill="black"/>
</g>
</g>
</svg>
