<svg width="32" height="32" viewBox="0 0 32 32" fill="none" xmlns="http://www.w3.org/2000/svg">
<g id="Quote">
<path id="Vector" d="M12.8557 7.55975C13.6559 7.22673 13.9915 6.27892 13.6301 5.51043L12.3652 2.87194C12.0038 2.12932 11.1261 1.79605 10.3516 2.12932C8.1574 3.05151 6.27294 4.25548 4.7757 5.71562C2.94286 7.43166 1.70376 9.40413 1.03258 11.5815C0.361404 13.7848 0 16.7817 0 20.5985V28.4628C0 29.3081 0.696994 29.9997 1.54887 29.9997H11.694C12.5459 29.9997 13.2429 29.3081 13.2429 28.4628V18.3955C13.2429 17.5499 12.5459 16.8585 11.694 16.8585H6.84086C6.89249 14.271 7.51204 12.1963 8.64788 10.6335C9.57721 9.37877 10.9712 8.35411 12.8557 7.55975ZM31.0807 7.55975C31.881 7.22673 32.2163 6.27892 31.8552 5.51043L30.5903 2.89781C30.2289 2.15493 29.3512 1.82192 28.5767 2.15493C26.4083 3.07713 24.5494 4.2811 23.0266 5.71562C21.1935 7.45754 19.9288 9.43 19.2574 11.6074C18.5862 13.7589 18.2509 16.7563 18.2509 20.5988V28.463C18.2509 29.3084 18.9479 30 19.7998 30H29.9449C30.7968 30 31.4938 29.3084 31.4938 28.463V18.3958C31.4938 17.5502 30.7968 16.8588 29.9449 16.8588H25.0659C25.1176 14.2713 25.7374 12.1966 26.873 10.6337C27.8023 9.37877 29.1963 8.35411 31.0807 7.55975Z" fill="#D1D1D1"/>
</g>
</svg>
