<svg width="46" height="46" viewBox="0 0 46 46" fill="none" xmlns="http://www.w3.org/2000/svg">
<g id="Safe and Support">
<g id="Vector">
<path fill-rule="evenodd" clip-rule="evenodd" d="M42.8236 17.6562V27.9093C42.8216 28.0719 42.7713 28.2303 42.6791 28.3643L36.8075 37.1898C36.9433 37.3378 37.0194 37.531 37.0211 37.7319V42.4075C37.0211 42.6253 36.9345 42.8343 36.7805 42.9883C36.6264 43.1424 36.4175 43.2289 36.1996 43.2289H26.2751C26.0573 43.2289 25.8484 43.1424 25.6943 42.9883C25.5403 42.8343 25.4537 42.6253 25.4537 42.4075V37.722C25.4562 37.5914 25.4905 37.4634 25.5534 37.3489C25.6164 37.2344 25.7062 37.137 25.8151 37.0649L25.5884 35.9412C25.2716 34.3247 25.5449 32.6481 26.3588 31.216C27.1727 29.7838 28.4732 28.691 30.0241 28.136L30.6451 27.9175L33.5661 23.5278C33.9348 22.9686 34.5021 22.5703 35.1533 22.4136C35.8045 22.2568 36.4909 22.3532 37.0736 22.6833V17.6562C37.0736 16.8937 37.3765 16.1624 37.9157 15.6233C38.4549 15.0841 39.1861 14.7812 39.9486 14.7812C40.7111 14.7812 41.4424 15.0841 41.9816 15.6233C42.5207 16.1624 42.8236 16.8937 42.8236 17.6562ZM27.1031 41.586H35.3848V38.5533H27.1031V41.586ZM35.0381 36.9105V36.899L41.1709 27.6612V17.6595C41.1711 17.4569 41.1211 17.2575 41.0255 17.079C40.9299 16.9005 40.7915 16.7484 40.6229 16.6363C40.4542 16.5243 40.2604 16.4557 40.0587 16.4367C39.8571 16.4177 39.6539 16.4489 39.4673 16.5275C39.2433 16.6209 39.0521 16.7786 38.9179 16.9807C38.7837 17.1828 38.7124 17.4201 38.7132 17.6628V25.1821C38.7131 25.3441 38.6651 25.5024 38.5752 25.6372L38.0084 26.4898L37.4663 27.3113L34.4812 31.7946C34.4213 31.8844 34.3444 31.9614 34.2547 32.0214C34.1651 32.0814 34.0645 32.1232 33.9587 32.1443C33.745 32.187 33.5231 32.1431 33.3419 32.0221C33.2521 31.9623 33.1751 31.8853 33.1151 31.7957C33.0551 31.706 33.0133 31.6054 32.9922 31.4996C32.971 31.3938 32.971 31.2849 32.9919 31.1791C33.0129 31.0732 33.0545 30.9726 33.1144 30.8828L36.5446 25.7292L36.6383 25.5879C36.7132 25.4759 36.7653 25.3501 36.7915 25.2179C36.8178 25.0857 36.8176 24.9496 36.7911 24.8174C36.7659 24.684 36.714 24.5571 36.6386 24.4442C36.5633 24.3313 36.4659 24.2347 36.3524 24.1603C36.128 24.0156 35.8561 23.9642 35.5944 24.017C35.3327 24.0697 35.1019 24.2225 34.9511 24.4428L31.8806 29.0609C31.7818 29.2088 31.6377 29.3206 31.4699 29.3796L30.5909 29.6918C29.4124 30.1132 28.4242 30.9436 27.8062 32.032C27.1881 33.1204 26.9812 34.3944 27.2231 35.6225L27.481 36.9105H35.0381Z" fill="white"/>
<path fill-rule="evenodd" clip-rule="evenodd" d="M20.0538 31.2209C20.8677 32.653 21.141 34.3296 20.8241 35.9461L20.5974 37.0748C20.7064 37.1468 20.7962 37.2443 20.8592 37.3588C20.9221 37.4732 20.9563 37.6013 20.9589 37.7319V42.4075C20.9589 42.6253 20.8723 42.8343 20.7183 42.9883C20.5642 43.1424 20.3553 43.2289 20.1374 43.2289H10.2113C9.99343 43.2289 9.7845 43.1424 9.63045 42.9883C9.4764 42.8343 9.38986 42.6253 9.38986 42.4075V37.7401C9.39148 37.5392 9.46758 37.346 9.60343 37.198L3.73186 28.3725C3.64199 28.2378 3.59398 28.0794 3.59386 27.9175V17.666C3.59386 17.2885 3.66822 16.9146 3.8127 16.5658C3.95719 16.217 4.16896 15.9001 4.43593 15.6331C4.70289 15.3661 5.01983 15.1544 5.36864 15.0099C5.71745 14.8654 6.09131 14.791 6.46886 14.791C6.84641 14.791 7.22026 14.8654 7.56907 15.0099C7.91788 15.1544 8.23482 15.3661 8.50179 15.6331C8.76876 15.9001 8.98053 16.217 9.12501 16.5658C9.26949 16.9146 9.34386 17.2885 9.34386 17.666V22.6932C9.92683 22.3602 10.6147 22.2616 11.2678 22.4175C11.9208 22.5735 12.49 22.9722 12.8596 23.5327L15.7674 27.9224L16.3884 28.1409C17.9394 28.6959 19.2399 29.7887 20.0538 31.2209ZM5.23836 17.6595V27.6595L11.4073 36.899V36.9105H18.9644L19.2224 35.6225C19.4643 34.3946 19.2577 33.1207 18.6399 32.0324C18.0222 30.944 17.0344 30.1135 15.8561 29.6918L14.9756 29.3796C14.8078 29.3206 14.6636 29.2088 14.5649 29.0609L11.4927 24.4428C11.4176 24.3301 11.3208 24.2333 11.208 24.1583C11.0952 24.0833 10.9686 24.0315 10.8356 24.0058C10.5692 23.9549 10.2934 24.0097 10.0667 24.1586C9.95232 24.2325 9.85385 24.3285 9.77709 24.441C9.70034 24.5535 9.64684 24.6802 9.61975 24.8137C9.59266 24.9471 9.59252 25.0847 9.61934 25.2182C9.64616 25.3517 9.6994 25.4785 9.77593 25.5912L10.7994 27.1289L13.3015 30.8779C13.3614 30.9676 13.403 31.0683 13.4239 31.1741C13.4449 31.28 13.4448 31.3889 13.4237 31.4947C13.4026 31.6005 13.3608 31.7011 13.3008 31.7907C13.2408 31.8804 13.1637 31.9574 13.074 32.0172C12.9842 32.0771 12.8836 32.1187 12.7777 32.1397C12.6719 32.1606 12.563 32.1605 12.4572 32.1394C12.3514 32.1183 12.2508 32.0765 12.1611 32.0165C12.0715 31.9565 11.9945 31.8794 11.9346 31.7897L7.839 25.6355C7.74914 25.5008 7.70113 25.3424 7.701 25.1805V17.6611C7.70154 17.4181 7.63004 17.1804 7.49553 16.9781C7.36101 16.7757 7.16953 16.6178 6.94529 16.5243C6.75821 16.4453 6.55448 16.4138 6.35229 16.4328C6.15011 16.4518 5.95579 16.5206 5.7867 16.6331C5.61761 16.7455 5.47902 16.8981 5.38333 17.0773C5.28764 17.2564 5.23783 17.4564 5.23836 17.6595ZM11.0344 41.586H19.316V38.5533H11.0344V41.586Z" fill="white"/>
<path d="M21.9778 14.9603L26.3314 10.6116H26.3182C26.4725 10.4574 26.6817 10.3707 26.8998 10.3707C27.1179 10.3707 27.3271 10.4574 27.4814 10.6116C27.6356 10.7659 27.7223 10.975 27.7223 11.1932C27.7223 11.4113 27.6356 11.6205 27.4814 11.7748L22.5528 16.7033C22.4765 16.7798 22.3859 16.8405 22.2861 16.8819C22.1863 16.9233 22.0793 16.9446 21.9712 16.9446C21.8632 16.9446 21.7562 16.9233 21.6564 16.8819C21.5566 16.8405 21.466 16.7798 21.3897 16.7033L18.9254 14.239C18.849 14.1627 18.7884 14.072 18.7471 13.9722C18.7058 13.8724 18.6845 13.7655 18.6845 13.6575C18.6845 13.5495 18.7058 13.4425 18.7471 13.3427C18.7884 13.2429 18.849 13.1523 18.9254 13.0759C19.0018 12.9995 19.0924 12.9389 19.1922 12.8976C19.292 12.8563 19.3989 12.835 19.507 12.835C19.615 12.835 19.7219 12.8563 19.8217 12.8976C19.9215 12.9389 20.0122 12.9995 20.0885 13.0759L21.9778 14.9603Z" fill="white"/>
<path fill-rule="evenodd" clip-rule="evenodd" d="M33.8881 7.23061V14.8436C33.8904 16.3927 33.5509 17.9232 32.8938 19.3261C32.2367 20.7289 31.2781 21.9695 30.0866 22.9593L23.7353 28.2526C23.5877 28.3756 23.4017 28.4429 23.2096 28.4429C23.0175 28.4429 22.8315 28.3756 22.6839 28.2526L16.3326 22.9593C15.141 21.9695 14.1825 20.7289 13.5254 19.3261C12.8683 17.9232 12.5287 16.3927 12.531 14.8436V7.23061C12.5308 7.07057 12.5773 6.91395 12.6648 6.77999C12.7524 6.64602 12.8772 6.54056 13.0239 6.47654L22.881 2.22483C22.9846 2.1796 23.0965 2.15625 23.2096 2.15625C23.3226 2.15625 23.4345 2.1796 23.5381 2.22483L33.3953 6.47654C33.542 6.54056 33.6667 6.64602 33.7543 6.77999C33.8419 6.91395 33.8884 7.07057 33.8881 7.23061ZM23.2096 26.5539L29.0335 21.7075C30.0411 20.8704 30.8515 19.8211 31.4067 18.6346C31.9619 17.4481 32.2482 16.1536 32.2453 14.8436V7.77111L23.2096 3.87426L14.1739 7.77933V14.8436C14.1711 16.1534 14.4573 17.4477 15.0122 18.6341C15.5671 19.8206 16.377 20.87 17.384 21.7075L23.2096 26.5539Z" fill="white"/>
</g>
</g>
</svg>
