<svg width="46" height="46" viewBox="0 0 46 46" fill="none" xmlns="http://www.w3.org/2000/svg">
<g id="Stipends">
<g id="Vector">
<path d="M19.9613 20.2223H10.8565C10.3619 20.2223 9.95758 19.8177 9.95758 19.3234C9.95758 18.8289 10.362 18.4246 10.8565 18.4246H19.9613C20.4559 18.4246 20.8602 18.829 20.8602 19.3234C20.8602 19.8177 20.4558 20.2223 19.9613 20.2223Z" fill="white"/>
<path d="M30.3787 26.6939C30.3067 26.6939 30.235 26.6846 30.1629 26.6669C29.0216 26.8018 28.1408 27.7812 28.1408 28.9499C28.1408 30.2169 29.1742 31.2507 30.4416 31.2507C32.6976 31.2507 34.5401 33.0844 34.5401 35.3493C34.5401 37.3267 33.1382 38.9803 31.2776 39.3669V40.2658C31.2776 40.7604 30.8729 41.1646 30.3787 41.1646C29.8841 41.1646 29.4798 40.7603 29.4798 40.2658V39.3399C27.6821 38.9086 26.343 37.2908 26.343 35.3582C26.343 34.8639 26.7474 34.4593 27.2419 34.4593C27.7361 34.4593 28.1408 34.8639 28.1408 35.3582C28.1408 36.6255 29.1742 37.6593 30.4416 37.6593C31.7178 37.6593 32.7427 36.6166 32.7427 35.3493C32.7427 34.082 31.709 33.0485 30.4416 33.0485C28.1855 33.0485 26.343 31.2148 26.343 28.9499C26.343 27.0265 27.6821 25.3994 29.4798 24.9681V24.3568C29.4798 23.8623 29.8842 23.4579 30.3787 23.4579C30.8729 23.4579 31.2776 23.8623 31.2776 24.3568V24.9319C33.1382 25.3185 34.5401 26.9725 34.5401 28.9499C34.5401 29.4441 34.1358 29.8485 33.6412 29.8485C33.1471 29.8485 32.7427 29.4441 32.7427 28.9499C32.7427 27.7454 31.8169 26.7566 30.6304 26.6576C30.5495 26.6846 30.4685 26.6939 30.3787 26.6939Z" fill="white"/>
<path fill-rule="evenodd" clip-rule="evenodd" d="M32.9849 11.9447V20.1059C38.5575 21.2653 42.8361 26.2447 42.8269 32.2039C42.8269 39.0258 37.2631 44.5625 30.4502 44.5625C25.9653 44.5625 22.0283 42.1537 19.8623 38.5586H8.41121C5.73299 38.5586 3.59375 36.4104 3.59375 33.7319V6.30001C3.59375 3.62155 5.73299 1.4375 8.41129 1.4375H22.9182C23.1608 1.4375 23.4035 1.53655 23.5744 1.71621L32.7244 11.3245C32.8771 11.4952 32.9849 11.7111 32.9849 11.9447ZM29.956 11.0548L23.8172 4.59253L23.8171 8.88886C23.8171 10.0752 24.7878 11.0548 25.9742 11.0548H29.956ZM5.39153 33.732C5.39153 35.4125 6.73059 36.7608 8.41121 36.7608V36.77H18.9723C18.406 35.4218 18.0915 33.8217 18.0915 32.204C18.0915 31.2064 18.2084 30.2088 18.4331 29.3099H10.8561C10.3615 29.3099 9.95723 28.9052 9.95723 28.411C9.95723 27.9165 10.3616 27.5121 10.8561 27.5121H19.0175C19.4307 26.5234 19.9611 25.6246 20.5993 24.7257H10.8562C10.3616 24.7257 9.95731 24.3214 9.95731 23.8268C9.95731 23.3326 10.3617 22.9282 10.8562 22.9282H22.2711C24.4462 21.0407 27.3314 19.8361 30.4683 19.8361C30.6002 19.8361 30.7265 19.8447 30.8599 19.8539C30.9628 19.8609 31.0699 19.8682 31.1871 19.8721V12.8525H25.9742C23.7902 12.8525 22.0194 11.0727 22.0194 8.88869V3.23527H8.41121C6.73059 3.23527 5.39153 4.61022 5.39153 6.30001V33.732ZM19.8982 32.2128C19.8982 38.0371 24.6351 42.7739 30.4594 42.7739C36.2837 42.7739 41.0203 38.0371 41.0203 32.2128C41.0203 26.3885 36.2926 21.6517 30.4594 21.6517C24.626 21.6517 19.8982 26.3885 19.8982 32.2128Z" fill="white"/>
</g>
</g>
</svg>
