<svg width="52" height="52" viewBox="0 0 52 52" fill="none" xmlns="http://www.w3.org/2000/svg">
<g id="Stuff">
<g id="Union">
<path fill-rule="evenodd" clip-rule="evenodd" d="M20.6917 8.55833C20.6917 5.62662 23.0683 3.25 26 3.25C28.9317 3.25 31.3083 5.62662 31.3083 8.55833C31.3083 11.4901 28.9317 13.8667 26 13.8667C23.0697 13.8633 20.695 11.4886 20.6917 8.55833ZM22.2083 8.55833C22.2083 10.6524 23.906 12.35 26 12.35C28.094 12.35 29.7917 10.6524 29.7917 8.55833C29.7917 6.46429 28.094 4.76667 26 4.76667C23.907 4.76913 22.2108 6.46533 22.2083 8.55833Z" fill="black"/>
<path d="M16.9 21.45C16.9042 17.6824 19.9574 14.6292 23.725 14.625H28.275C32.0426 14.6292 35.0958 17.6824 35.1 21.45V34.3417H32.0667V48.75H30.55V31.3083H32.0667V32.825H33.5833V21.45C33.58 18.5197 31.2053 16.145 28.275 16.1417H23.725C20.7947 16.145 18.42 18.5197 18.4167 21.45V32.825H19.9333V31.3083H21.45V48.75H19.9333V34.3417H16.9V21.45Z" fill="black"/>
<path d="M26.7583 48.75V34.3417H25.2417V48.75H26.7583Z" fill="black"/>
<path fill-rule="evenodd" clip-rule="evenodd" d="M36.6167 15.3833C36.6167 12.8704 38.6537 10.8333 41.1667 10.8333C43.6796 10.8333 45.7167 12.8704 45.7167 15.3833C45.7167 17.8963 43.6796 19.9333 41.1667 19.9333C38.6548 19.9309 36.6191 17.8952 36.6167 15.3833ZM38.1333 15.3833C38.1333 17.0586 39.4914 18.4167 41.1667 18.4167C42.8419 18.4167 44.2 17.0586 44.2 15.3833C44.2 13.7081 42.8419 12.35 41.1667 12.35C39.4914 12.35 38.1333 13.7081 38.1333 15.3833Z" fill="black"/>
<path d="M36.6167 20.6917H43.4417C46.372 20.695 48.7467 23.0697 48.75 26V37.375H45.7167V48.75H44.2V34.3417H45.7167V35.8583H47.2333V26C47.2309 23.907 45.5347 22.2108 43.4417 22.2083H36.6167V20.6917Z" fill="black"/>
<path d="M36.6167 35.8583V34.3417H38.1333V48.75H36.6167V37.375H33.5833V35.8583H36.6167Z" fill="black"/>
<path d="M41.925 37.375V48.75H40.4083V37.375H41.925Z" fill="black"/>
<path fill-rule="evenodd" clip-rule="evenodd" d="M10.8333 10.8333C8.32041 10.8333 6.28333 12.8704 6.28333 15.3833C6.2858 17.8952 8.32145 19.9309 10.8333 19.9333C13.3463 19.9333 15.3833 17.8963 15.3833 15.3833C15.3833 12.8704 13.3463 10.8333 10.8333 10.8333ZM10.8333 18.4167C9.15808 18.4167 7.8 17.0586 7.8 15.3833C7.8 13.7081 9.15808 12.35 10.8333 12.35C12.5086 12.35 13.8667 13.7081 13.8667 15.3833C13.8667 17.0586 12.5086 18.4167 10.8333 18.4167Z" fill="black"/>
<path d="M8.55833 20.6917C5.62804 20.695 3.25332 23.0697 3.25 26V37.375H6.28333V48.75H7.8V34.3417H6.28333V35.8583H4.76667V26C4.76913 23.907 6.46533 22.2108 8.55833 22.2083H15.3833V20.6917H8.55833Z" fill="black"/>
<path d="M15.3833 35.8583V34.3417H13.8667V48.75H15.3833V37.375H18.4167V35.8583H15.3833Z" fill="black"/>
<path d="M11.5917 37.375H10.075V48.75H11.5917V37.375Z" fill="black"/>
</g>
</g>
</svg>
