<svg width="52" height="52" viewBox="0 0 52 52" fill="none" xmlns="http://www.w3.org/2000/svg">
<g id="Teacher">
<g id="Union">
<path fill-rule="evenodd" clip-rule="evenodd" d="M14.9093 6.35831V12.8113C14.9093 13.2321 14.5669 13.5735 14.1451 13.5735C13.7233 13.5735 13.381 13.232 13.381 12.8113V6.35831C13.3811 5.74943 13.6235 5.16549 14.055 4.73478C14.4868 4.30434 15.0723 4.06253 15.6827 4.0625H47.7228C48.3333 4.06259 48.9187 4.30439 49.3505 4.73478C49.782 5.16549 50.0245 5.74943 50.0246 6.35831V30.7557C50.0245 31.3646 49.782 31.9485 49.3505 32.3792C48.9187 32.8096 48.3333 33.0514 47.7228 33.0515H31.8247C31.7876 33.0903 31.7496 33.1283 31.7107 33.1654C30.8626 33.9773 29.8826 34.915 29.0155 35.7445L28.2386 36.4878C27.1115 37.5662 25.6101 38.1683 24.0483 38.1682H20.6532C20.5838 38.1683 20.5174 38.1957 20.4682 38.2444C20.4193 38.2932 20.3923 38.3593 20.3923 38.4284V45.6416C20.3923 46.9094 19.3616 47.9374 18.09 47.9374H7.74662C7.73897 47.9375 7.73131 47.9375 7.72362 47.9374H3.9267C3.59193 47.9374 3.26118 47.8645 2.95753 47.7239C2.65388 47.5833 2.38462 47.3784 2.16853 47.1233C1.95262 46.8683 1.79501 46.5694 1.70668 46.2474C1.61835 45.9254 1.60142 45.5881 1.65706 45.2589L1.93991 43.5906C2.29017 41.5246 2.74161 38.8618 3.13297 36.5548C3.69694 33.2285 6.58514 30.7939 9.96698 30.7939H23.1984C23.398 30.794 23.5898 30.7172 23.7339 30.5795L26.5925 27.8441C27.2999 27.167 28.248 26.798 29.2282 26.8181C29.3187 26.82 29.4089 26.8252 29.4985 26.8337L32.4565 17.6109C32.5854 17.21 33.0159 16.989 33.4173 17.117C33.8193 17.2455 34.0409 17.6744 33.9126 18.0753L30.9575 27.2876C31.2644 27.4591 31.5479 27.6748 31.7979 27.9305C32.1404 28.2808 32.4097 28.6956 32.5898 29.1507C32.77 29.6059 32.8576 30.0922 32.8474 30.5815C32.8407 30.9023 32.7921 31.2202 32.7033 31.5272H38.8845V28.8593C38.8845 27.8735 39.6854 27.0747 40.6738 27.0747H48.4962V6.35831C48.4962 6.25702 48.4762 6.15672 48.4373 6.06315C48.3984 5.96959 48.3414 5.88461 48.2694 5.8131C48.1248 5.66826 47.9281 5.58696 47.7228 5.58696H15.6827C15.4776 5.587 15.281 5.66828 15.1359 5.81293C14.9909 5.95757 14.9094 6.15374 14.9093 6.35831ZM29.7723 28.4325C29.7769 28.4341 29.7816 28.4356 29.7863 28.4371C29.7955 28.44 29.8048 28.4428 29.814 28.4454C30.1481 28.5523 30.4542 28.7395 30.7034 28.9944C30.7055 28.9967 30.7107 29.0022 30.7159 29.0076C30.7211 29.0131 30.7263 29.0185 30.7284 29.0208C31.121 29.4356 31.3333 29.9883 31.3191 30.5586C31.3049 31.1289 31.0652 31.6704 30.6524 32.0652C29.8901 32.7949 29.0211 33.6264 28.2234 34.3896L28.1695 34.4411C27.8202 34.7753 27.4854 35.0956 27.1804 35.3875C26.3379 36.1936 25.2156 36.6437 24.0481 36.6437H20.653C20.418 36.6437 20.1854 36.6898 19.9683 36.7795C19.7512 36.8692 19.5539 37.0007 19.3878 37.1664C19.2216 37.3321 19.0899 37.5288 18.9999 37.7453C18.91 37.9619 18.8637 38.1939 18.8637 38.4283V45.6415C18.8633 46.0673 18.5173 46.4129 18.0904 46.4129H14.9093V43.548C14.9093 42.5622 14.1079 41.7634 13.12 41.7634H9.42681L9.82432 39.4182C9.89465 39.0036 9.61438 38.6097 9.19817 38.5397C8.78244 38.4695 8.38757 38.7495 8.31733 39.1642L7.77144 42.3847C7.76981 42.3934 7.76832 42.4021 7.76699 42.4109L7.08864 46.4129H3.92662C3.81418 46.4129 3.70309 46.3884 3.6011 46.3412C3.49911 46.294 3.40868 46.2251 3.33612 46.1395C3.26351 46.0538 3.2105 45.9533 3.18076 45.8451C3.15101 45.7369 3.14526 45.6236 3.1639 45.513L4.6398 36.8088C5.0795 34.2163 7.33084 32.3183 9.96682 32.3183H23.1983C23.7923 32.3182 24.3633 32.0892 24.7921 31.6791L27.6507 28.9437C27.8561 28.7471 28.0984 28.5928 28.3636 28.4897C28.6288 28.3865 28.9118 28.3365 29.1964 28.3425C29.3933 28.3465 29.5869 28.3772 29.7723 28.4325ZM9.1684 43.2878L8.63869 46.4129H13.3809V43.548C13.381 43.5138 13.3742 43.48 13.3611 43.4484C13.348 43.4168 13.3288 43.3882 13.3046 43.364C13.2804 43.3398 13.2516 43.3207 13.2199 43.3076C13.1883 43.2945 13.1544 43.2878 13.1201 43.2878H9.1684ZM48.4962 28.5992H40.6737C40.6394 28.5991 40.6055 28.6058 40.5739 28.6189C40.5422 28.632 40.5134 28.6511 40.4892 28.6753C40.465 28.6995 40.4458 28.7282 40.4327 28.7597C40.4196 28.7913 40.4128 28.8252 40.4129 28.8593V31.5272H47.7228C47.8244 31.5272 47.9249 31.5073 48.0187 31.4685C48.1125 31.4296 48.1977 31.3727 48.2694 31.301C48.4146 31.1567 48.4962 30.9606 48.4962 30.7558V28.5992Z" fill="black"/>
<path d="M31.3443 47.1751V36.3449C31.3443 35.9242 31.6872 35.5827 32.1085 35.5827C32.5303 35.5827 32.8726 35.9241 32.8726 36.3449V47.1751C32.8726 47.5959 32.5304 47.9373 32.1085 47.9373C31.6872 47.9373 31.3443 47.5959 31.3443 47.1751Z" fill="black"/>
<path d="M30.0197 10.7274H19.4676C19.0457 10.7274 18.7033 10.3859 18.7034 9.9652C18.7034 9.54449 19.0458 9.20301 19.4676 9.20301H30.0197C30.4411 9.20301 30.7839 9.54441 30.7839 9.9652C30.7839 10.3859 30.4411 10.7274 30.0197 10.7274Z" fill="black"/>
<path d="M44.75 14.6661H19.4676C19.0457 14.6661 18.7033 14.3246 18.7034 13.9039C18.7034 13.4837 19.0458 13.1417 19.4676 13.1417H44.75C45.1718 13.1417 45.5142 13.4837 45.5142 13.9039C45.5142 14.3246 45.1719 14.6661 44.75 14.6661Z" fill="black"/>
<path d="M29.0792 18.6053H24.0925C23.6712 18.6053 23.3284 18.2638 23.3284 17.8431C23.3284 17.4224 23.6712 17.0809 24.0925 17.0809H29.0792C29.501 17.0809 29.8434 17.4223 29.8434 17.8431C29.8434 18.2638 29.5011 18.6053 29.0792 18.6053Z" fill="black"/>
<path d="M44.2253 23.9862H36.3376C35.9158 23.9862 35.5735 23.6447 35.5735 23.224C35.5735 22.8037 35.9158 22.4618 36.3376 22.4618H44.2253C44.6471 22.4618 44.9895 22.8037 44.9895 23.224C44.9895 23.6447 44.6472 23.9862 44.2253 23.9862Z" fill="black"/>
<path d="M44.6278 18.6053H38.2253C37.804 18.6053 37.461 18.2638 37.4611 17.8431C37.4611 17.4224 37.804 17.0809 38.2253 17.0809H44.6278C45.0496 17.0809 45.392 17.4223 45.392 17.8431C45.392 18.2638 45.0497 18.6053 44.6278 18.6053Z" fill="black"/>
<path fill-rule="evenodd" clip-rule="evenodd" d="M6.78581 21.4621C6.78581 17.5925 9.93534 14.4511 13.815 14.4511C17.6942 14.4511 20.8442 17.5925 20.8442 21.4621C20.8442 25.3317 17.6941 28.4731 13.815 28.4731C9.93534 28.4731 6.78581 25.3317 6.78581 21.4621ZM19.3157 21.4621C19.3157 18.434 16.8509 15.9756 13.815 15.9756C10.7791 15.9756 8.31422 18.434 8.31422 21.4621C8.31422 24.4902 10.779 26.9487 13.815 26.9487C16.8509 26.9487 19.3157 24.4902 19.3157 21.4621Z" fill="black"/>
</g>
</g>
</svg>
